<svg xmlns="http://www.w3.org/2000/svg" version="1.1" xmlns:xlink="http://www.w3.org/1999/xlink" xmlns:svgjs="http://svgjs.dev/svgjs" viewBox="0 0 800 800"><defs><linearGradient x1="50%" y1="0%" x2="50%" y2="100%" id="ssscribble-grad"><stop stop-color="hsl(340, 45%, 50%)" stop-opacity="1" offset="0%"></stop><stop stop-color="hsl(340, 45%, 80%)" stop-opacity="1" offset="100%"></stop></linearGradient></defs><g fill="none" stroke-width="1.5" stroke="url(#ssscribble-grad)" stroke-linecap="round"><path d="M1065.69 475.59C1102.97 508.45 1060.1 552.9 956.4 606.58 824.86 658.88 704.6 717.17 625.68 775.77 602.57 825.89 631.84 866.54 694.95 888.82 778.83 891.18 853.63 867.07 903.45 815.7 928.01 753.17 918.45 681.81 882.18 619.76 825.17 591.67 756.47 605.41 686.25 669.05 611.2 774.13 543.24 900.76 486.1 1016.72 429.09 1089.32 383.51 1095.36 350.65 1028.1 317.79 911.67 299.2 783.21 294.24 681.85 289.4 633.67 297.59 645.81 315.69 705.68 328.97 798.04 343.55 889.39 349.91 956.43 335.54 992.08 297.92 984.37 230.29 940.16 137.4 867.23 23.64 778.39 -94.45 687.19 -191.77 594.1 -250.52 511.8 -251.49 443.06 -196.66 380.64 -95.11 329.73 23.74 287.47 114.76 247.8 150.97 212.22 113.69 179.36 10.7 146.5 -115.85 117.91 -221.85 95.61 -279.78 75.89 -268.1 67.02 -195.35 72.49 -81.52 84.28 43.76 112.46 152.87 154.9 250.02 216.29 220.01 252.52 155.66 167.04 110.79 65.78 80.86 -55.02 68.17 -171.47 62.49 -255.43 71.73 -286.29 92 -250.81 115.07 -162.14 144.17 -40.35 177.03 76.08 209.89 143.36 244.96 144 283.85 84.1 325.56 -19.17 376.1 -127.1 438.73 -208.1 508.37 -247.67 592.41 -231.94 687.93 -169.65 781.36 -73.39 871.66 36.93 944.04 142.53 985.03 236.97 986.44 308.26 942.28 356.55 867.38 384.93 771.57 398.39 681.82 405.22 633.16 403.57 640.19 405.06 710.8 414.73 829.48 423.02 962.7 442.73 1065.69 475.59Q1065.69 475.59 1065.69 475.59" opacity="0.97"></path><path d="M1031.69 582.77C1068.91 613.28 1036.46 650.1 948.28 690.7 829.28 729.15 710.58 767.04 619.26 798.96 570.55 822.17 568.59 831.7 603.57 822.24 667.88 799.26 738.24 756.38 798.57 697.62 859.31 614.16 831.22 576.07 766.71 677.01 712.69 785.14 658.7 902.76 610.1 1002.72 560.11 1060.35 518.71 1058.77 488.2 994.1 457.68 886.87 439.5 766.71 431.94 665.74 423 606.49 421.48 598.45 422.63 635.57 415.75 708.97 402.51 793.06 375.31 867.18 329.69 924.42 262.57 948.39 173.5 939.38 73.17 902.73 -33.36 843.58 -129.44 772.95 -196.19 692.6 -221.59 614.08 -195.26 543.19 -126.3 473.41 -24.97 413.83 82.25 364.8 158.64 317.1 184.92 277.97 147.69 247.45 53.57 216.94 -63.16 196.49 -166.79 186.64 -234.63 178.12 -244.58 182.19 -198.63 199.09 -109.31 217.09 2.76 245.36 113.9 278.68 210.56 302.29 278.02 317.64 314.41 314.3 321.13 283.33 306.84 223.19 282.69 134.18 247.79 28.29 217.66 -83.15 198.04 -178.92 179.66 -238.42 174.64 -247.76 182.67 -200.3 192.16 -111.12 212.49 2.84 243 110.08 273.52 174.77 312.77 182.55 360.82 136.71 410.34 48.53 470.87 -51.71 542.13 -137.48 614.63 -195.72 695 -209.05 776.94 -179.17 848.11 -113.61 906.21 -24.39 939.49 72.53 943.09 171.28 911.81 257.97 846.92 327.98 767.55 384.48 682.84 425.2 615.88 454.87 592.3 475.84 619.62 493.46 699.24 512.55 814.64 529.5 937.57 552.26 1031.69 582.77Q1031.69 582.77 1031.69 582.77" opacity="0.20"></path><path d="M997.69 626.82C1034.45 654.99 1011.41 682.64 938.38 707.91 833.63 731.14 721 748.16 623.66 755.32 555.8 756.04 526.08 742.67 531.47 713.69 568.66 679.09 621.93 633.05 677.53 582.17 734.35 542.33 776.27 514.99 799.77 511.37 811.13 540.27 804.89 601.64 785.71 691.95 758.56 797.42 725.37 902.84 691.05 986.26 654.69 1029.9 621.26 1021.82 593.09 960.1 564.93 861.99 543.36 750.67 526.59 652.03 507.8 584.88 489.75 559.56 468.08 574.69 438.45 626.14 398.31 695.78 343.53 766.86 276.63 833.85 194.27 879.21 100.53 898.84 8.01 896.6 -78.64 870.76 -145.15 828.54 -179.87 773.12 -175.41 712 -128.21 651.82 -51.5 588.6 45.08 531.54 138.96 483.37 201.12 435.2 218.45 396.4 181.69 368.23 96.26 340.06 -10.3 323.85 -109.66 318.91 -183.87 313.96 -211.72 319.77 -190.88 334.18 -128.41 345.55 -36.78 360.29 65.43 372.3 167.07 371.11 252.48 356.52 315.26 321.85 355.29 265.31 373.39 186.56 376.33 90.24 364.83 -10.15 349.62 -105.05 337.35 -177.16 321.7 -212.94 314.78 -203.66 318.95 -147.39 323.11 -59.63 338.92 45.96 367.08 144.08 395.25 205.81 434.45 219.63 483.41 186.86 532.35 114.31 590.51 24.93 654.97 -59.89 716.06 -129.56 777.66 -165.68 832.57 -165.25 873.03 -132.31 895.38 -71.57 892.26 5.17 866.4 92.97 814.38 179.44 742.07 257.46 669.18 329.84 602.81 389.6 560.98 437.69 560.79 479.35 604.67 513.56 689.75 543.46 799.98 571.3 912.26 598.65 997.69 626.82Q997.69 626.82 997.69 626.82" opacity="0.13"></path><path d="M963.69 592.53C999.57 618.35 984.9 637.84 926.33 650.21 836.92 661.26 734.14 662.9 636.84 653.78 557.12 641.69 505.58 618.13 483.83 584.62 491.37 552.46 519.63 517.04 558.53 485.33 607.38 469.3 651.77 469.85 685.84 493.9 715.36 544.03 730.75 618.57 733.05 711.41 729.82 809.29 717.02 900.18 697.72 967.11 676.59 997.98 652.34 984.5 626.52 926.1 600.7 837.02 574.54 735.01 546.97 640.47 517.58 568.55 483.41 529.39 441.9 524.59 394.85 553.24 336.94 603.66 267.63 663.38 193.76 728.73 112.3 783.53 29.61 821.44 -43.12 845.61 -101.99 849.39 -136.42 836.09 -141.55 810.22 -113.16 773.98 -52.37 733.04 25.99 686.94 114.08 641.89 193.52 601.55 242.13 560.25 251.57 525.8 215.69 499.98 138.77 474.15 42.58 458.19 -50.82 450.79 -148.75 441.47 -101.64 434.94 16.51 417.88 110.73 391.39 200.63 350.54 277.8 292.54 341.6 220.79 387.34 135.38 417.43 43.14 434.06 -43.45 441.84 -117.03 446.27 -164.61 445.04 -178.74 446.73 -154.29 454.78 -92.35 461.77 -7.78 477.49 88.98 503.31 178.07 529.13 236.48 563.83 255.21 605.53 234.32 646.17 177.36 691.45 101.16 737.43 22.21 795.11 -77.39 841.01 -108.48 806.72 -43.58 763.39 21.96 704.1 94.45 636.77 166.4 578.93 239.71 535.22 305.79 518.46 362.63 538.6 416.49 594.87 461.81 681.98 499.46 785.35 535.78 886.77 566.71 963.69 592.53Q963.69 592.53 963.69 592.53" opacity="0.92"></path><path d="M929.72 491.74C964.29 515.22 956.86 529.39 911.78 534.49 838.15 539.17 748.07 534.26 656.2 520.38 572.05 506.77 506.22 486.06 462.95 461.42 443.59 434.77 505.43 441.77 552.22 500.26 584.38 564.03 607.94 643.83 621.23 732.65 632.34 819.04 633.42 894.04 625.32 945.08 616.16 964.56 599.6 946.83 576.13 892.11 552.66 811.95 523.38 719.59 488.28 630.73 452.11 557.11 408.33 507.88 356.54 486.31 302.58 493.32 240.37 522.38 172.03 565.04 105.55 619.38 38.89 672.13 -21.36 716.52 -81.91 767.49 -59.69 784.14 29.64 759.06 104.3 734.46 181.02 706.3 245.59 677.86 281.62 648.1 284.29 620.67 249.72 597.2 181.11 573.72 95.42 555.33 9.35 540.82 -67.51 524.99 -118.44 510.45 -137.59 494.37 -126.41 473.14 -85.61 445.75 -23.74 409.05 53.31 363.23 135.21 305.33 213.56 235.69 287.7 160.54 350.28 79.96 400.29 1.18 440.93 -65.92 471.33 -116.02 494.65 -140.24 512.42 -135.87 528 -100.01 544.37 -35.45 559.31 44.35 577.88 131.95 601.35 212.11 624.82 266.83 652.08 289.31 681.41 278.89 709.3 236.91 736.43 175.26 759.33 106.09 776.69 34.47 784.96 -24.27 780.49 -63.6 766.66 -84.78 737.79 -82.7 694.41 -60.92 646.83 -23.19 592.76 26.29 540.13 81.22 502.7 142.04 482.94 201.41 488.96 255.69 525.31 310.25 589.58 357.86 675.51 397.44 770.63 436.61 861.08 468.26 929.69 491.73Q929.72 491.74 929.72 491.74" opacity="0.87"></path><path d="M895.47 359.15C928.51 380.28 927.35 392.55 894.71 396.76 836.77 401.3 761.36 398.6 679.32 390.39 597.56 384.55 525.44 376.27 468.21 368.95 427.13 369.13 403.41 375.84 394.32 393.01 399.21 423.29 412.09 467.69 427.96 526.53 449.53 595.67 468.16 673.31 480.87 752.74 494.34 824.93 499.91 883.59 496.7 919.87 493.29 929.52 481.23 908.7 460.1 858 438.98 786.65 409.79 704.18 373.36 622.35 336.74 549.87 292.73 494.49 242.66 460.09 193.33 448.36 139.92 456.51 85.79 479.48 37.36 516.56 -5.83 558.1 -38.42 598.14 -57.01 639.25 -58.34 672.02 -39.25 694.54 -4.03 712.48 49.14 719.91 115.41 718.18 181.97 712.79 245.36 700.91 295.14 684.58 319.64 667.11 316.51 647.31 283.47 626.19 222.81 605.06 147.54 583.61 69.94 561.24 -3.72 537.73 -59.52 511.18 -91.67 479.97 -100.8 445.09 -84.32 402.88 -46.98 352.38 7.15 297.3 71.7 234.2 139.62 165.41 210.31 97.68 276.31 31.09 334.6 -27.98 388.67 -72.95 434.09 -100.05 471.56 -103.81 505.26 -84.9 533.63 -41.55 558.3 22.76 581.76 96.43 603.76 174.61 624.88 245.97 646 296.68 665.26 321.8 681.64 320.31 696.81 292.19 706.87 245.55 709.78 188.85 708.91 124.9 698.29 66.21 676.77 19.06 651.04 -17.78 615.38 -37.13 572.37 -39.73 532.14 -29.22 492.63 -5.6 460.49 26.77 445.15 66.65 447.61 109.72 472.23 152.17 519.86 196.99 587.69 238.12 669.51 273.42 755.26 309.05 834.81 338.03 895.47 359.15Q895.47 359.15 895.47 359.15" opacity="0.53"></path><path d="M861.71 240.82C892.49 259.6 896.09 272.62 874.15 280.72 830.87 289.53 770.86 294.84 701.71 298.48 628.13 305.15 557.5 313.16 494.94 325.12 441.37 343.74 400.19 369.9 371.09 405.48 353.02 449.73 344.07 504.05 341.09 567.03 344.76 633.77 349.81 703.07 353.33 769.25 360.02 847.23 346.81 881.81 322.53 824.08 303.76 761.39 278.09 688.94 246.7 615.27 215.75 546.5 180.02 488.8 141.58 445.98 105.52 419.71 69.54 409.67 36.93 413.34 10.97 430.61 -7.03 455.4 -13.57 483.19 -9.08 516.06 9.82 546.06 43.84 570.48 86.85 594.35 140.65 610.62 200.46 618.89 255.84 625.5 305.17 624.85 341.2 617.53 355.9 609.55 348.49 596.04 317.71 577.27 265.02 558.49 200.17 535.32 131.88 507.89 63.76 479.8 6.97 446.29 -33.34 407.13 -57.8 366.33 -61.94 319.14 -47.81 266.32 -18.38 212.97 23.64 156 73.16 98.53 129.39 46.12 186.56 -0.93 241.04 -37.75 295.74 -60.97 345.05 -67.76 387.85 -55.26 429.19 -26.2 464.47 20.79 493.8 82.32 522.47 148.74 546.3 217.39 565.07 280.08 590.28 339.71 608.98 326.87 599.62 267.99 589.36 215.58 570.98 163.12 545.22 115.93 519.68 72.5 489.47 40.45 457.85 20.8 423.05 10.24 419.18 49.39 467.88 86.72 521.97 115.62 589.44 144.47 664.8 171.08 740.33 198.39 808.99 222.04 861.68 240.81Q861.71 240.82 861.71 240.82" opacity="0.35"></path><path d="M827.68 177.39C864.96 210.25 820.54 237.89 721.65 267.57 595.92 307.26 477.79 365.74 389.39 450.58 328.07 552.01 294.33 670.53 273.5 779.26 263.14 848.9 246.04 857.35 213.18 790.07 180.32 673.63 134.8 544.7 88.22 442.74 52.1 383.92 34.55 371.02 52.81 387.22 98.13 428.96 181.41 467.2 283.05 486.17 357.86 505.42 388.96 499.86 351.68 466.99 248.69 434.13 128.61 377.09 35.32 300.88 -19.86 224.97 -15.5 135.45 32.45 50.64 110.57 -8.63 198.33 -30.58 274.83 4.14 352.88 82.02 411.4 197.63 444.26 314.07 477.13 381.35 481.21 386.22 460.11 340.67 440.56 256.02 404.08 172.36 369.03 113.99 364.14 72.23 394.64 65.03 473.92 82.29 591.29 109.55 724.69 144.53 827.68 177.39Q827.68 177.39 827.68 177.39" opacity="0.71"></path><path d="M793.72 190.83C830.45 219 805.68 255.7 735.65 302.94 637.01 355.95 532.15 427.61 441.31 516.3 361.96 607.89 303.83 703.18 262.89 780.7 229.56 823.42 201.18 817.82 173.02 756.11 144.85 658 119.56 546.41 104.08 449.01 96.21 376.7 110.38 336.8 152.81 322.99 206.73 332.19 281.72 347.53 359.71 355.33 409.09 367.19 422.45 361.73 385.72 333.56 300.3 305.39 199.32 257.19 112.42 196.52 44.82 139.9 18.7 80.61 29.18 34.5 64.94 11.38 118.19 21.4 172.01 73.06 231.05 149.8 278.83 249.97 307 348.08 335.18 409.81 341.06 426.83 330.84 404.77 325.83 347.89 316.53 282.48 317.68 227.8 344.11 176.02 400.1 148.33 488.34 144.12 595.88 145.69 708.27 162.66 793.69 190.82Q793.72 190.83 793.72 190.83" opacity="0.58"></path><path d="M759.72 276.5C794.29 299.97 785.07 338.64 741.15 390.29 672.28 443.65 590.9 511.29 512.6 586.93 434.88 657.74 369.89 724.37 320.63 771.79 274.93 792.12 240.3 776.83 216.83 722.11 193.36 641.95 183.27 549.42 188.29 462.72 196.87 387.84 225.23 332.8 272.18 297.56 319.73 278.43 376.21 269.11 427.87 261.07 454.58 257.69 454.29 246.57 419.72 223.1 351.11 199.63 270.07 166.03 195.24 128.73 105.61 82.44 78.81 76.69 116.15 149.42 149.17 218.91 180.72 301.92 204.19 382.08 227.67 436.82 240.84 461.63 248.49 458.51 261.45 428.29 278.84 386.57 308.94 346.52 355.46 301.64 422.97 270.63 508.49 257.94 600.53 246.97 691.08 253.02 759.69 276.49Q759.72 276.5 759.72 276.5" opacity="0.44"></path><path d="M725.6 404.77C756.45 423.55 758.38 456.57 736.09 499.93 695.48 542.61 641.88 593.47 585.5 645.81 524.66 691.19 469.13 729.37 424.53 751.29 380.37 754.92 347.42 734.39 328.64 688.06 309.86 625.36 307.04 552.77 318.65 481.4 330.71 413.57 356.94 355.86 393.16 311.09 424.93 274.91 458.62 248 485.46 227.17 493.99 209.63 484.45 192.46 453.6 173.69 400.87 154.91 339.63 136.3 280.61 121.3 221.08 109.58 175.57 107.19 147.47 118.76 127.16 138.92 122.25 176.71 128.96 230.77 139.08 288.38 155.07 353.36 173.85 416.06 192.63 462.39 212.41 490.53 234.84 500.67 260.67 492.51 294.88 474.25 339.8 453.48 392.52 425.75 457.94 404.19 531.24 394.06 604.02 383.24 672.87 386 725.6 404.77Q725.6 404.77 725.6 404.77" opacity="0.86"></path><path d="M691.72 531.48C728.45 559.64 700.14 619.33 641.26 678.56 563.5 716.33 494.7 715.82 466.54 654.11 438.37 555.99 456.17 443.87 497.01 357.16 518.98 282.39 524.45 230.68 487.72 202.51 402.29 174.34 312.53 175.06 256.06 212.91 207.6 262.71 199.06 351.99 227.23 450.11 255.39 511.82 314.94 535.16 400.31 534.31 493.69 512 606.29 503.31 691.72 531.48Q691.72 531.48 691.72 531.48" opacity="0.69"></path><path d="M657.69 612.71C693.83 650.27 617.58 691.41 580.03 620.1 542.47 485.09 557.83 337.05 521.69 299.49 400.52 261.94 306.93 349.09 344.49 484.1 382.04 555.41 536.52 575.16 657.69 612.71Q657.69 612.71 657.69 612.71" opacity="1.00"></path></g></svg>